<svg xmlns="http://www.w3.org/2000/svg" viewBox="0 0 24 24" fill="currentColor">
  <path d="M15.812 4.819c-.76-.42-1.626-.659-2.544-.659-.915 0-1.78.24-2.54.659a4.972 4.972 0 0 0-1.837 1.837c-.42.76-.659 1.625-.659 2.54 0 .915.24 1.78.659 2.54.42.76.998 1.337 1.837 1.837.76.42 1.625.659 2.54.659.918 0 1.784-.24 2.544-.659a4.972 4.972 0 0 0 1.837-1.837c.42-.76.659-1.625.659-2.54 0-.915-.24-1.78-.659-2.54a4.972 4.972 0 0 0-1.837-1.837zM12 0c3.314 0 6 2.686 6 6s-2.686 6-6 6-6-2.686-6-6 2.686-6 6-6zm0 24c-3.314 0-6-2.686-6-6s2.686-6 6-6 6 2.686 6 6-2.686 6-6 6z"/>
</svg>